<svg xmlns="http://www.w3.org/2000/svg" viewBox="0 0 512 512">
  <circle cx="256" cy="256" r="256" fill="#0b4ea2"/>
  <path d="M256 0c70.7 0 136 29.1 182.7 76.3-17.9 5.4-37.1 20.2-54.1 33.3-30.6 23.6-58.8 45.4-97.7 45.4-44.3 0-72-19.5-105-44.6-34-25.9-72.7-55.4-132.2-50.5C85 25 167.9 0 256 0z" fill="#54a858"/>
  <path d="M0 256c0-70.7 29.1-136 76.3-182.7 5.4 17.9 20.2 37.1 33.3 54.1 23.6 30.6 45.4 58.8 45.4 97.7 0 44.3-19.5 72-44.6 105-25.9 34-55.4 72.7-50.5 132.2C25 427 0 344.1 0 256z" fill="#54a858"/>
</svg>
