<svg width="1280" height="720" viewBox="0 0 1280 720" fill="none" xmlns="http://www.w3.org/2000/svg">
  <rect width="1280" height="720" rx="48" fill="url(#paint0_linear_2_1)"/>
  <g opacity="0.5" filter="url(#filter0_f_2_1)">
    <ellipse cx="340" cy="520" rx="260" ry="200" fill="#38bdf8"/>
    <ellipse cx="980" cy="240" rx="300" ry="220" fill="#a5b4fc"/>
  </g>
  <rect x="220" y="200" width="840" height="340" rx="40" fill="white" opacity="0.92"/>
  <rect x="260" y="240" width="320" height="200" rx="28" fill="#e0f2fe"/>
  <rect x="620" y="240" width="340" height="48" rx="16" fill="#bae6fd"/>
  <rect x="620" y="308" width="300" height="16" rx="8" fill="#0ea5e9" opacity="0.7"/>
  <rect x="620" y="340" width="260" height="16" rx="8" fill="#38bdf8" opacity="0.4"/>
  <g transform="translate(300 280)">
    <circle cx="60" cy="60" r="60" fill="url(#paint1_radial_2_1)"/>
    <path d="M60 20L78 68H42L60 20Z" fill="white" opacity="0.9"/>
  </g>
  <rect x="260" y="460" width="700" height="40" rx="20" fill="#0ea5e9" opacity="0.9"/>
  <defs>
    <filter id="filter0_f_2_1" x="-20" y="-80" width="1480" height="880" filterUnits="userSpaceOnUse" color-interpolation-filters="sRGB">
      <feFlood flood-opacity="0" result="BackgroundImageFix"/>
      <feBlend mode="normal" in="SourceGraphic" in2="BackgroundImageFix" result="shape"/>
      <feGaussianBlur stdDeviation="120" result="effect1_foregroundBlur_2_1"/>
    </filter>
    <linearGradient id="paint0_linear_2_1" x1="200" y1="40" x2="1080" y2="720" gradientUnits="userSpaceOnUse">
      <stop stop-color="#f8fafc"/>
      <stop offset="1" stop-color="#e0e7ff"/>
    </linearGradient>
    <radialGradient id="paint1_radial_2_1" cx="0" cy="0" r="1" gradientUnits="userSpaceOnUse" gradientTransform="translate(40 40) rotate(45) scale(110)">
      <stop stop-color="#38bdf8"/>
      <stop offset="1" stop-color="#0ea5e9"/>
    </radialGradient>
  </defs>
</svg>
